<svg width="432.988037" height="361.414062" viewBox="0 0 432.988 361.414" fill="none" xmlns="http://www.w3.org/2000/svg" xmlns:xlink="http://www.w3.org/1999/xlink">
	<desc>
			Created with Pixso.
	</desc>
	<defs>
		<linearGradient x1="379.482941" y1="167.366699" x2="135.044678" y2="81.917053" id="paint_linear_0_625_0" gradientUnits="userSpaceOnUse">
			<stop stop-color="#FFFFFF" stop-opacity="0.000000"/>
			<stop offset="1.000000" stop-color="#FFFFFF" stop-opacity="0.239216"/>
		</linearGradient>
	</defs>
	<path id="Fill 1" d="M430.809 197.418C430.335 200.509 428.947 203.517 426.918 206.442C427.758 204.594 428.345 202.71 428.62 200.786C428.741 199.945 428.801 199.104 428.801 198.264C428.801 193.823 427.119 189.403 423.781 185.09C420.344 180.67 414.869 179.115 407.963 179.668C416.413 177.937 422.934 178.747 426.434 183.274C429.489 187.225 430.993 191.091 430.993 195.023C430.993 195.818 430.931 196.616 430.809 197.418ZM415.559 275.101C418.326 275.762 419.294 276.555 419.294 277.055C419.294 277.07 419.293 277.085 419.292 277.099C419.217 277.731 418.566 278.46 417.435 279.264C416.803 277.288 413.665 276.525 412.528 276.25C389.496 270.695 377.667 264.8 376.368 258.228C376.288 257.83 376.252 257.427 376.252 257.023C376.252 256.811 376.262 256.599 376.281 256.386C376.489 256.172 376.697 255.957 376.905 255.742C378.771 263.085 391.086 269.249 415.559 275.101ZM379.5 308.051C379.312 307.913 379.103 307.783 378.859 307.664C380.782 306.944 382.563 306.237 384.192 305.546C383.136 306.266 381.572 307.105 379.5 308.051ZM376.432 311.683C376.407 311.647 376.39 311.61 376.363 311.573C376.58 311.485 376.793 311.397 377.003 311.311C376.83 311.43 376.64 311.554 376.432 311.683ZM214.848 359.385C206.174 359.997 202.759 350.876 199.135 341.198L199.093 341.085C196.377 333.834 193.584 326.417 188.313 323.713C194.045 325.019 197.143 332.123 200.379 339.575C204.327 348.667 208.404 358.057 217.76 358.057C218.068 358.057 218.38 358.047 218.7 358.026C235.568 356.937 269.617 349.626 298.997 342.158C268.749 350.064 232.203 358.178 214.848 359.385ZM116.333 330.618C115.369 330.739 114.465 330.882 113.594 331.033C115.205 330.674 116.984 330.355 118.997 330.134C122.411 329.763 125.659 329.454 128.786 329.181C124.865 329.601 120.733 330.07 116.333 330.618ZM92.5165 327.816C88.4525 320.134 82.8406 319.012 76.9005 317.824C72.1276 316.869 67.1946 315.882 62.1705 311.515C49.0035 300.069 10.7805 250.193 2.52759 236.706C2.48352 236.633 2.4425 236.564 2.40454 236.5C2.86658 236.693 3.45459 236.985 4.12158 237.34C4.22351 238.103 4.72656 238.895 5.02649 239.366C13.9756 253.403 51.1755 299.356 64.4465 310.844C69.8196 315.498 75.0796 316.574 79.7216 317.523C85.4575 318.696 89.9885 319.623 93.5215 326.499C96.5635 332.418 98.9785 334.063 102.29 333.873C97.9065 334.957 95.9595 334.325 92.5165 327.816ZM118.932 202.197C119.747 200.692 120.123 198.725 120.123 196.36C120.123 192.574 119.16 187.77 117.502 182.212C119.516 188.429 120.713 193.722 120.713 197.64C120.713 199.558 120.426 201.147 119.807 202.354C117.421 207.01 112.601 209.708 106.613 211.59C112.013 209.558 116.487 206.709 118.932 202.197ZM75.2815 21.29C89.0665 18.51 132.648 35.542 164.472 47.9832C180.232 54.145 193.843 59.4661 200.63 61.1702C201.181 61.3081 201.713 61.364 202.232 61.3511C201.416 61.6931 200.582 61.7852 199.716 61.5681C193.071 59.8992 179.65 54.6641 164.109 48.6021C130.786 35.604 89.3196 19.4312 75.0425 22.219C74.1176 22.4001 73.3175 22.7451 72.6365 23.238C73.1965 22.188 74.0555 21.5381 75.2815 21.29ZM271.539 2.99707C286.905 6.02563 290.98 23.1777 290.98 43.7488C290.98 44.9009 290.967 46.0635 290.943 47.2351C290.906 26.093 286.584 8.29004 270.122 5.00415C255.427 2.0542 244.534 5.54004 236.16 11.9412C244.531 4.31616 255.707 -0.123779 271.539 2.99707ZM289.354 126.233C289.703 126.551 290.079 126.763 290.482 126.887C289.781 127.124 289.232 127.115 288.872 126.782C287.329 125.348 286.507 122.444 286.167 118.529C286.674 122.058 287.669 124.699 289.354 126.233ZM381.165 113.276C388.928 119.709 392.855 126.97 392.855 134.881C392.855 135.386 392.839 135.894 392.807 136.404C392.397 142.916 389.425 149.67 384.664 156.487C388.38 150.492 390.667 144.522 391.026 138.668C391.058 138.136 391.074 137.606 391.074 137.08C391.074 128.718 386.978 121.085 378.88 114.371C361.594 100.033 346.279 97.7241 333.357 100.608C333.663 100.517 333.963 100.414 334.271 100.328C350.025 95.9492 365.364 100.185 381.165 113.276ZM426.642 200.502C426.187 203.672 424.786 206.762 422.736 209.77C423.612 207.827 424.217 205.847 424.485 203.826C424.589 203.036 424.641 202.246 424.641 201.458C424.641 196.95 422.934 192.476 419.548 188.126C415.966 183.525 410.429 181.852 403.539 182.314C411.948 180.67 418.531 181.597 422.201 186.316C425.287 190.304 426.807 194.216 426.807 198.209C426.807 198.97 426.752 199.734 426.642 200.502ZM385.716 301.389C385.371 301.246 384.999 301.113 384.571 300.998C384.461 300.969 384.362 300.939 384.253 300.91C387.423 299.845 390.425 298.766 393.133 297.691C393.188 297.76 393.209 297.813 393.209 297.849C393.209 297.852 393.209 297.855 393.208 297.858C393.203 297.912 393.177 297.971 393.16 298.028C391.349 299.01 388.872 300.136 385.716 301.389ZM374.134 310.297C374.12 310.293 374.109 310.288 374.094 310.284C373.604 310.146 373.143 310.005 372.668 309.866C373.753 309.498 374.807 309.132 375.831 308.769C376.24 308.885 376.63 309.004 377.05 309.12C376.147 309.499 375.174 309.891 374.134 310.297ZM371.984 313.97C371.755 313.828 371.475 313.696 371.154 313.574C372.24 313.177 373.25 312.796 374.203 312.429C374.447 312.53 374.59 312.615 374.671 312.672C373.899 313.074 373.013 313.505 371.984 313.97ZM203.555 337.372L203.556 337.375C207.83 345.898 212.245 354.701 221.51 354.7C221.806 354.7 222.108 354.69 222.413 354.672C239.763 353.639 274.686 346.223 304.32 338.724C273.863 346.654 236.43 354.877 218.571 356.03C209.945 356.582 206.191 347.938 202.214 338.78L202.214 338.779C199.281 332.024 196.266 325.122 191.046 322.547C196.747 323.791 200.071 330.425 203.555 337.372ZM121.417 327.662C126.05 327.233 130.327 326.938 134.4 326.712C129.556 327.085 124.373 327.538 118.781 328.146C117.682 328.266 116.661 328.418 115.687 328.584C117.375 328.197 119.259 327.863 121.417 327.662ZM8.59949 239.907C8.77856 240.26 8.99658 240.619 9.2345 240.977C18.5245 254.986 54.6455 297.115 68.0376 308.662C73.3595 313.251 78.4496 314.316 82.9396 315.255C88.4766 316.414 92.8495 317.329 96.2986 324.242C99.1426 329.944 101.411 331.62 104.447 331.513C100.385 332.562 98.5555 331.918 95.3005 325.585C91.3285 317.856 85.8855 316.742 80.1226 315.564C75.5066 314.619 70.7335 313.643 65.7545 309.333C52.8196 298.134 16.9706 253.924 7.24548 239.106C7.68958 239.367 8.14148 239.634 8.59949 239.907ZM32.2975 244.67C32.2485 244.782 32.1946 244.89 32.1605 245.012C31.6176 244.864 31.0696 244.702 30.5155 244.526C30.6045 244.481 30.7046 244.438 30.8265 244.398C31.3115 244.495 31.8015 244.586 32.2975 244.67ZM198.323 63.9001C191.694 62.2361 178.405 57.0642 163.017 51.0762C130.212 38.3101 89.3855 22.427 75.2085 25.104C74.2595 25.2832 73.4396 25.6301 72.7466 26.135C73.3115 25.0752 74.1825 24.425 75.4275 24.1821C89.1085 21.499 132.044 38.2412 163.382 50.4651C178.986 56.552 192.461 61.8091 199.229 63.5081C199.797 63.6511 200.346 63.7092 200.88 63.6941C200.05 64.0332 199.203 64.1201 198.323 63.9001ZM288.914 50.8162C288.859 29.9102 284.598 12.2561 268.322 8.96509C253.782 5.98804 242.982 9.38916 234.667 15.6631C242.984 8.177 254.062 3.82202 269.729 6.96509C284.942 10.002 288.948 27.0674 288.948 47.4607C288.948 48.5698 288.936 49.689 288.914 50.8162ZM287.049 128.801C285.543 127.374 284.736 124.524 284.394 120.695C284.899 124.137 285.872 126.725 287.51 128.247C287.872 128.583 288.264 128.803 288.682 128.932C287.974 129.166 287.415 129.15 287.049 128.801ZM387.253 140.803C387.283 140.297 387.298 139.793 387.298 139.292C387.298 131.09 383.274 123.596 375.322 116.997C357.66 102.33 342.124 100.421 329.161 103.726C342.515 99.2532 358.716 100.243 377.603 115.91C385.22 122.226 389.074 129.347 389.074 137.097C389.074 137.578 389.059 138.061 389.03 138.546C388.602 145.551 385.24 152.777 379.875 160.041C384.201 153.564 386.879 147.11 387.253 140.803ZM422.501 203.563C422.082 206.733 420.73 209.831 418.744 212.852C419.895 210.2 420.545 207.481 420.545 204.687C420.545 200.364 418.988 195.864 415.319 191.165C411.544 186.332 405.869 184.549 398.896 184.97C407.375 183.352 414.098 184.381 417.969 189.355C421.104 193.382 422.646 197.343 422.646 201.401C422.646 202.119 422.598 202.839 422.501 203.563ZM408.585 283.606C407.525 282.929 406.182 282.592 405.539 282.433C384.122 277.173 373.03 271.453 371.628 264.947C371.526 264.473 371.477 263.994 371.477 263.511C371.477 262.676 371.623 261.826 371.897 260.964C371.927 261.304 371.969 261.645 372.04 261.985C373.583 269.465 385.188 275.597 408.557 281.283C410.08 281.655 410.972 282.066 411.426 282.427C410.542 282.812 409.599 283.204 408.585 283.606ZM373.113 305.861C372.315 305.608 371.542 305.352 370.792 305.092C374.182 304.107 377.569 303.081 380.831 302.033C381.431 302.208 382.066 302.378 382.688 302.55C379.913 303.583 376.73 304.688 373.113 305.861ZM367.949 312.582C367.333 312.388 366.734 312.192 366.147 311.994C367.257 311.645 368.337 311.298 369.4 310.951C369.939 311.125 370.477 311.299 371.038 311.47C370.056 311.833 369.029 312.203 367.949 312.582ZM366.443 316.272C365.901 316.109 365.355 315.946 364.833 315.78C365.882 315.428 366.911 315.079 367.896 314.735C367.937 314.721 367.974 314.708 368.015 314.694C368.458 314.831 368.911 314.966 369.369 315.101C368.469 315.474 367.49 315.866 366.443 316.272ZM206.748 335.178C211.344 343.129 216.092 351.343 225.26 351.343C225.542 351.343 225.832 351.335 226.123 351.319C243.915 350.349 279.589 342.863 309.41 335.356C278.793 343.293 240.618 351.585 222.292 352.676C213.728 353.186 209.654 345.069 205.343 336.476C202.219 330.247 199.011 323.888 193.89 321.415C199.498 322.652 203.042 328.766 206.748 335.178ZM123.833 325.191C129.531 324.757 134.713 324.552 139.624 324.448C133.964 324.696 127.961 325.048 121.233 325.67C120.054 325.78 118.962 325.931 117.927 326.103C119.656 325.7 121.593 325.364 123.833 325.191ZM13.7015 242.968C23.3036 256.684 58.1355 294.901 71.6255 306.483C76.8955 311.008 81.8156 312.062 86.1555 312.992C91.4926 314.136 95.7075 315.039 99.0706 321.99C101.716 327.458 103.836 329.178 106.604 329.165C105.197 329.541 104.04 329.689 103.047 329.377C101.424 328.865 99.9406 327.063 98.0875 323.35C94.2065 315.569 88.9325 314.466 83.3485 313.297C78.8876 312.364 74.2745 311.399 69.3435 307.147C57.0496 296.547 23.7466 257.915 12.5835 242.299C12.9546 242.522 13.3265 242.745 13.7015 242.968ZM67.9215 224.419C67.9155 224.415 67.9115 224.411 67.9065 224.406C68.0035 224.337 68.0995 224.268 68.1996 224.2C68.1066 224.272 68.0126 224.345 67.9215 224.419ZM196.927 66.2341C190.318 64.5742 177.164 59.468 161.934 53.5552L161.928 53.553C129.642 41.0193 89.4697 25.4243 75.3735 27.988C74.4055 28.165 73.5675 28.5142 72.8625 29.0261C73.4336 27.958 74.3165 27.3081 75.5796 27.0691C89.1906 24.4961 131.445 40.936 162.292 52.9402C177.743 58.9531 191.084 64.145 197.836 65.8401C198.432 65.9902 199.01 66.052 199.573 66.0332C198.715 66.3801 197.838 66.4622 196.927 66.2341ZM286.89 54.375C286.813 33.7161 282.604 16.2231 266.522 12.927C252.743 10.0552 242.434 12.8042 234.393 18.322C242.51 11.6272 253.167 7.90723 267.923 10.9241C282.986 13.9709 286.921 30.9585 286.921 51.1799C286.921 52.2368 286.91 53.3022 286.89 54.375ZM285.227 130.821C283.75 129.393 282.955 126.57 282.615 122.787C283.114 126.177 284.071 128.733 285.672 130.252C286.051 130.611 286.461 130.84 286.9 130.973C286.177 131.207 285.604 131.187 285.227 130.821ZM383.482 142.945C383.509 142.465 383.523 141.987 383.523 141.511C383.523 133.467 379.573 126.112 371.765 119.627C354.378 105.171 339.122 103.275 326.417 106.495C339.509 102.107 355.428 103.076 374.043 118.536C381.517 124.737 385.297 131.719 385.297 139.31C385.297 139.766 385.284 140.225 385.257 140.685C384.852 147.522 381.565 154.587 376.315 161.695C380.522 155.377 383.128 149.086 383.482 142.945ZM414.567 216.172C415.718 213.482 416.371 210.727 416.371 207.9C416.371 203.513 414.798 198.956 411.082 194.21C406.88 188.844 400.622 187.027 393.015 187.708C402.109 185.791 409.403 186.838 413.743 192.396C417.013 196.584 418.409 200.636 418.409 204.562C418.409 208.561 416.96 212.428 414.567 216.172ZM364.227 306.951C365.315 306.65 366.411 306.344 367.51 306.033C368.271 306.323 369.057 306.61 369.871 306.894C368.827 307.221 367.745 307.554 366.635 307.891C365.798 307.583 365 307.269 364.227 306.951ZM359.733 313.952C360.826 313.627 361.906 313.303 362.965 312.981C363.572 313.209 364.196 313.433 364.833 313.655C363.823 313.998 362.775 314.346 361.692 314.7C361.018 314.454 360.365 314.205 359.733 313.952ZM323.237 325.654C292.535 333.472 252.868 341.748 233.459 342.611C225.091 342.988 219.875 336.193 214.829 329.618L214.811 329.594C210.385 323.828 205.832 317.919 199.187 316.979C199.276 316.958 199.362 316.941 199.451 316.919C207.913 314.856 213.708 320.492 219.847 326.463C225.635 332.095 231.614 337.914 240.298 337.914C240.521 337.914 240.748 337.91 240.974 337.902C262.888 337.147 318.615 325.87 356.722 314.834C357.35 315.118 358 315.397 358.675 315.673C349.233 318.672 337.394 322.048 323.237 325.654ZM69.5386 225.765C69.5186 225.747 69.4976 225.73 69.4775 225.712C69.7715 225.481 70.0765 225.258 70.3885 225.042C70.0975 225.275 69.8146 225.516 69.5386 225.765ZM195.531 68.5752C188.937 66.9192 175.917 61.8772 160.844 56.04C129.074 43.7371 89.5245 28.4211 75.5375 30.8811C74.5436 31.0552 73.6855 31.406 72.9656 31.9302C73.5425 30.8452 74.4435 30.1902 75.7325 29.9561C89.2666 27.4902 130.844 43.6309 161.203 55.4167L161.209 55.4192C176.501 61.3562 189.708 66.4832 196.442 68.1741C197.071 68.333 197.678 68.3921 198.27 68.3672C197.382 68.7231 196.474 68.811 195.531 68.5752ZM284.854 58.5642C284.831 37.9031 280.75 20.2671 264.717 16.8982C250.769 13.968 240.398 16.8452 232.334 22.5012C240.468 15.6472 251.184 11.7722 266.118 14.8862C281.032 17.9419 284.894 34.8545 284.894 54.9058C284.894 56.1145 284.88 57.3347 284.854 58.5642ZM283.4 132.851C281.928 131.399 281.143 128.543 280.812 124.724C281.3 128.14 282.245 130.719 283.835 132.259C284.23 132.641 284.66 132.88 285.118 133.019C284.376 133.256 283.788 133.233 283.4 132.851ZM379.705 145.098C379.73 144.642 379.743 144.188 379.743 143.736C379.743 135.851 375.865 128.633 368.203 122.264C351.082 108.01 336.098 106.135 323.646 109.277C336.482 104.965 352.13 105.902 370.487 121.166C377.814 127.251 381.522 134.095 381.522 141.527C381.522 141.959 381.51 142.394 381.485 142.83C381.101 149.499 377.888 156.403 372.754 163.354C376.842 157.198 379.371 151.071 379.705 145.098ZM402.619 200.284C396.437 192.432 386.896 191.407 375.654 194.393C390.549 188.329 402.958 187.081 409.508 195.443C412.827 199.682 414.24 203.795 414.24 207.787C414.24 213.868 410.963 219.668 406.153 225.205C405.597 225.602 405.04 225.997 404.484 226.39C406.7 222.501 408.042 218.49 408.042 214.347C408.042 209.819 406.439 205.135 402.619 200.284ZM357.969 308.643C359.008 308.368 360.062 308.086 361.127 307.798C361.886 308.147 362.672 308.492 363.502 308.831C362.471 309.136 361.415 309.444 360.333 309.756C359.508 309.391 358.714 309.021 357.969 308.643ZM354.365 311.441C353.598 311.018 352.874 310.586 352.205 310.144C353.168 309.897 354.159 309.642 355.165 309.38C355.875 309.791 356.64 310.19 357.431 310.585C356.428 310.868 355.406 311.153 354.365 311.441ZM223.234 324.291C229.284 329.34 235.534 334.557 244.069 334.557C244.273 334.557 244.479 334.554 244.687 334.548C264.76 333.96 304.445 326.107 334.99 318.563C333.663 318.901 332.315 319.242 330.94 319.585C300.391 327.216 260.705 335.222 240.906 335.903C232.708 336.188 226.906 330.542 221.284 325.071L221.242 325.03C217.354 321.249 213.382 317.397 208.648 315.572C213.982 316.588 218.517 320.353 223.234 324.291ZM33.1066 252.348C42.3185 262.442 59.1796 276.025 73.0095 287.165C77.9115 291.112 82.5396 294.841 85.9916 297.756C91.0425 302.022 95.4835 303.079 99.0515 303.928C103.755 305.046 107.153 305.855 110.177 312.967C111.832 316.861 113.285 318.814 115.031 319.498C116.943 320.247 118.843 319.393 121.248 318.312L121.257 318.308C124.031 317.061 127.832 315.353 133.508 315.302C143.574 315.213 152.202 316.265 160.539 317.282L160.669 317.298C168.285 318.227 175.651 319.118 183.312 318.969C174.297 319.884 165.826 319.389 156.427 318.83C147.896 318.323 139.073 317.799 128.586 318.247C122.78 318.499 118.782 320.073 115.864 321.222C111.077 323.106 109.635 323.671 106.446 316.648C102.841 308.713 98.2986 307.69 93.0386 306.506C89.2206 305.646 84.8926 304.67 80.1055 300.595C67.6016 289.946 41.6786 265.683 28.6095 250.871C30.2015 251.518 31.7135 252.027 33.1066 252.348ZM58.4115 228.921C58.1805 229.393 57.9735 229.883 57.7826 230.388C55.9976 229.354 54.3175 228.575 52.7915 228.246C52.8566 227.705 52.9265 227.156 53.0076 226.599C54.4186 226.694 56.3146 227.611 58.4115 228.921ZM192.739 73.2451C186.178 71.5972 173.43 66.686 158.667 60.999L158.637 60.9875C127.909 49.1484 89.674 34.4167 75.8645 36.6531C75.0205 36.7891 74.2765 37.0571 73.6235 37.4402C73.3816 36.6101 73.1625 35.8081 72.9666 35.0322C72.9785 35.0061 72.9855 34.9741 72.9976 34.9492C73.5785 33.7751 74.5215 33.0891 75.8816 32.8511C89.3165 30.498 130.247 46.3362 160.122 57.905C175.258 63.7661 188.33 68.8291 195.044 70.5142C196.615 70.9102 198.057 70.7231 199.422 70.0701C197.263 72.542 195.104 73.8362 192.739 73.2451ZM344.284 189.606C359.852 176.379 371.463 162.62 372.159 149.399C372.18 148.99 372.191 148.582 372.191 148.176C372.191 140.606 368.459 133.663 361.083 127.522C338.832 108.948 320.453 111.979 306.779 119.279C321.254 109.476 341.379 102.534 366.923 123.801C374.107 129.773 377.742 136.478 377.742 143.751C377.742 144.161 377.731 144.573 377.708 144.986C376.906 159.369 362.521 174.927 344.284 189.606ZM398.388 203.325C393.801 197.515 387.74 195.172 380.688 195.304C389.177 193.912 396.281 195.469 401.048 201.521C404.472 205.87 405.917 210.112 405.917 214.245C405.917 218.531 404.364 222.7 401.851 226.75C403.139 223.764 403.882 220.713 403.882 217.593C403.882 212.987 402.263 208.233 398.388 203.325ZM342.5 310.5C312.163 317.856 272.435 325.451 252.074 325.838C251.93 325.841 251.788 325.843 251.645 325.843C244.01 325.842 237.535 321.964 231.269 318.212C227.156 315.749 222.964 313.244 218.466 311.891C223.719 312.673 228.719 315.151 233.905 317.732C240.58 321.054 247.477 324.487 255.441 324.487C255.568 324.487 255.697 324.486 255.824 324.484C276.515 324.197 316.44 316.707 346.829 309.411C347.14 309.336 347.458 309.259 347.783 309.181C347.788 309.186 347.793 309.19 347.8 309.196C346.078 309.625 344.323 310.059 342.5 310.5ZM230.24 319.928C236.742 323.82 243.458 327.843 251.636 327.843C251.793 327.843 251.953 327.841 252.112 327.838L252.113 327.838C272.625 327.448 312.527 319.825 342.973 312.444C344.953 311.963 347.214 311.407 349.671 310.787C350.297 311.26 350.984 311.719 351.703 312.171C346.529 313.578 340.906 315.04 334.792 316.552C304.314 324.092 264.615 331.963 244.628 332.549C236.539 332.793 230.479 327.734 224.598 322.825L224.515 322.755C219.376 318.467 214.102 314.077 207.599 313.392C215.983 311.41 222.916 315.541 230.24 319.928ZM135.686 312.827C135.764 312.827 135.843 312.827 135.921 312.828C145.906 312.922 154.505 314.243 162.823 315.52C163.083 315.56 163.341 315.599 163.601 315.639C162.711 315.532 161.817 315.423 160.911 315.313C152.472 314.283 143.732 313.233 133.49 313.302C132.084 313.315 130.802 313.428 129.605 313.6C131.351 313.145 133.344 312.827 135.686 312.827ZM36.2896 252.733C44.2695 261.459 58.6016 272.107 71.3705 281.591C78.3215 286.753 84.8865 291.629 89.5775 295.573C94.5715 299.773 98.8425 300.819 102.276 301.659C106.764 302.758 110.007 303.552 112.948 310.71C114.544 314.595 115.953 316.532 117.656 317.187C117.882 317.273 118.109 317.335 118.333 317.377C117.302 317.756 116.462 317.911 115.76 317.636C114.594 317.179 113.405 315.447 112.016 312.185C108.598 304.143 104.389 303.141 99.5145 301.982C95.9785 301.141 91.9685 300.187 87.2825 296.228C83.8125 293.298 79.3876 289.734 74.2645 285.607C61.2645 275.136 45.5715 262.494 36.2065 252.735C36.2345 252.735 36.2626 252.734 36.2896 252.733ZM60.5186 230.315C60.3246 230.777 60.1545 231.26 59.9966 231.754C59.8365 231.65 59.6765 231.547 59.5186 231.447C59.6906 230.955 59.8885 230.485 60.1025 230.028C60.2405 230.122 60.3795 230.219 60.5186 230.315ZM78.3735 233.336C78.2516 233.233 78.1295 233.131 78.0066 233.028C78.9565 231.313 80.2795 229.919 81.8926 228.773C80.4275 230.024 79.2355 231.529 78.3735 233.336ZM191.346 75.5791C184.802 73.936 172.19 69.0891 157.584 63.478L157.513 63.4504C127.311 51.8462 89.7487 37.4138 76.0336 39.54C75.4465 39.6301 74.9115 39.7871 74.4146 39.9961C74.3556 39.811 74.3055 39.6382 74.2466 39.4551C74.7695 39.0371 75.4026 38.7522 76.1815 38.6272C89.4751 36.4861 128.976 51.7036 157.868 62.8337L157.95 62.865C172.773 68.5752 185.573 73.5071 192.251 75.1841C192.965 75.364 193.65 75.4111 194.318 75.373C193.354 75.739 192.37 75.834 191.346 75.5791ZM278.78 69.198C278.676 49.3181 274.741 32.2002 259.314 28.79C245.604 25.759 235.406 28.542 227.455 33.999C235.474 27.3811 246.005 23.5891 260.688 26.7791C275.165 29.9248 278.807 46.6548 278.807 66.2085C278.807 67.1982 278.797 68.1953 278.78 69.198ZM277.928 138.918C276.542 137.465 275.791 134.7 275.459 131.035C275.937 134.284 276.83 136.763 278.317 138.29C278.768 138.754 279.266 139.032 279.8 139.177C279.001 139.421 278.364 139.374 277.928 138.918ZM368.389 151.558C368.408 151.17 368.418 150.783 368.418 150.398C368.418 142.986 364.759 136.181 357.529 130.155C341.305 116.593 327.215 114.712 315.573 117.543C327.584 113.549 342.336 114.479 359.802 129.059C366.783 134.871 370.191 141.122 370.191 148.135C370.191 148.519 370.181 148.906 370.161 149.294C369.831 155.564 366.847 162.012 362.076 168.5C365.802 162.807 368.104 157.13 368.389 151.558ZM393.237 234.306C394.709 230.986 395.575 227.596 395.575 224.136C395.575 219.354 393.919 214.44 389.922 209.4C383.226 200.96 374.288 199.151 364.149 201.35C377.788 195.978 389.603 195.424 396.818 204.564C400.301 208.977 401.766 213.294 401.766 217.51C401.766 222.445 399.759 227.241 396.635 231.886C395.477 232.702 394.342 233.508 393.237 234.306ZM356.451 302.898C357.376 302.677 358.349 302.443 359.365 302.197L359.366 302.198C358.417 302.437 357.455 302.676 356.479 302.917C356.469 302.911 356.458 302.904 356.451 302.898ZM351.362 304.16C351.342 304.141 351.326 304.122 351.306 304.103C352.171 303.903 353.028 303.704 353.878 303.505C353.895 303.518 353.911 303.53 353.927 303.543C353.084 303.748 352.223 303.954 351.362 304.16ZM353.266 305.761C353.785 305.635 354.318 305.506 354.864 305.373C354.338 305.505 353.812 305.638 353.279 305.771C353.275 305.768 353.27 305.764 353.266 305.761ZM237.724 315.518C244.526 318.278 251.555 321.131 259.267 321.131C259.357 321.131 259.448 321.131 259.538 321.13C279.378 320.959 316.479 314.294 346.161 307.438C346.177 307.459 346.194 307.481 346.211 307.501C315.948 314.761 276.299 322.2 255.797 322.484C248.219 322.625 241.483 319.271 234.969 316.028L234.796 315.941C230.625 313.866 226.382 311.76 221.932 310.583C227.211 311.252 232.375 313.346 237.724 315.518ZM62.6476 231.836C62.4916 232.288 62.3556 232.759 62.2325 233.24C62.0665 233.127 61.9005 233.014 61.7355 232.903C61.8716 232.422 62.0295 231.96 62.2025 231.511C62.3506 231.619 62.4985 231.728 62.6476 231.836ZM188.553 80.249C182.042 78.613 169.702 73.8992 155.411 68.4402L155.207 68.3618C126.06 57.2283 89.8969 43.4146 76.3616 45.3142C76.3396 45.3171 76.3215 45.322 76.2996 45.3262C75.8566 44.1521 75.4525 43.0222 75.0685 41.917C75.4496 41.7361 75.8595 41.5901 76.3365 41.5171C89.5521 39.4814 128.446 54.4248 156.859 65.3416L156.869 65.3452C171.534 70.98 184.198 75.8462 190.859 77.5181C192.722 77.9871 194.415 77.6802 196.021 76.8071C193.596 79.4871 191.198 80.9102 188.553 80.249ZM332.73 195.156C348.243 182.272 360.224 168.758 360.842 155.877C360.858 155.528 360.867 155.181 360.867 154.834C360.867 147.739 357.352 141.21 350.41 135.414C329.529 117.906 312.843 120.118 300.188 126.668C313.578 117.79 332.258 111.636 356.246 131.69C363.083 137.387 366.419 143.504 366.419 150.359C366.419 150.723 366.409 151.088 366.391 151.456C365.667 165.627 351.024 180.783 332.73 195.156ZM262.365 254.68C262.036 254.317 261.854 253.926 261.782 253.491C261.925 253.96 262.161 254.397 262.497 254.799C262.455 254.757 262.406 254.725 262.365 254.68ZM385.297 240.467C386.553 237.285 387.288 234.048 387.288 230.763C387.288 225.775 385.594 220.675 381.457 215.485C374.078 206.227 364.867 204.234 354.753 206.501C368.279 200.865 380.247 200.422 388.355 210.644C391.963 215.192 393.466 219.672 393.466 224.066C393.466 228.494 391.94 232.835 389.507 237.07C388.008 238.216 386.598 239.347 385.297 240.467ZM359.677 300.022C361.135 299.68 362.719 299.303 364.405 298.895C362.88 299.277 361.318 299.663 359.722 300.051C359.707 300.042 359.693 300.032 359.677 300.022ZM354.333 301.254C355.228 301.052 356.115 300.849 356.995 300.646C357.016 300.662 357.036 300.679 357.057 300.695C356.185 300.904 355.307 301.114 354.414 301.325C354.386 301.301 354.359 301.278 354.333 301.254ZM349.706 302.289C350.459 302.123 351.207 301.957 351.953 301.79C351.982 301.82 352.007 301.851 352.038 301.88C351.294 302.053 350.546 302.225 349.792 302.397C349.766 302.361 349.734 302.325 349.706 302.289ZM345.967 303.262C345.947 303.212 345.927 303.162 345.909 303.112C346.479 302.99 347.046 302.867 347.613 302.744C347.641 302.788 347.667 302.831 347.697 302.874C347.122 303.004 346.546 303.133 345.967 303.262ZM241.766 313.278L241.77 313.28C248.628 315.491 255.718 317.777 263.128 317.776L263.249 317.776C282.102 317.711 316.177 311.897 344.854 305.558C344.875 305.596 344.904 305.633 344.926 305.671C315.49 312.438 279.038 318.961 259.52 319.13C259.436 319.131 259.353 319.131 259.27 319.131C251.946 319.131 245.099 316.353 238.477 313.665C234.316 311.976 230.084 310.263 225.736 309.26C231.016 309.821 236.302 311.516 241.766 313.278ZM143.171 305.406C152.732 306.018 161.136 308.105 169.266 310.124C171.339 310.639 173.393 311.146 175.442 311.624C172.826 311.118 170.203 310.553 167.547 309.978C159.274 308.186 150.718 306.332 140.846 305.883C139.38 305.816 138.046 305.883 136.818 306.038C138.604 305.536 140.688 305.247 143.171 305.406ZM76.7645 274.913C85.7046 279.533 94.1476 283.897 100.347 289.026C105.16 293.037 108.938 294.051 111.974 294.866C115.956 295.935 118.587 296.64 121.276 303.942C122.723 307.865 123.967 309.699 125.57 310.273C125.622 310.292 125.672 310.295 125.723 310.311C124.862 310.712 124.169 310.902 123.618 310.698C122.635 310.337 121.573 308.632 120.369 305.485C117.226 297.268 113.703 296.351 109.24 295.19C106.114 294.376 102.57 293.455 98.0386 289.676C92.0405 284.674 83.8115 279.764 75.0985 274.566C72.7795 273.182 70.4456 271.788 68.1385 270.384C70.9835 271.924 73.8855 273.425 76.7645 274.913ZM56.4125 235.404C55.0586 234.708 53.7115 234.07 52.4175 233.637C52.4275 233.13 52.4435 232.616 52.4685 232.093C53.7615 232.496 55.2345 233.239 56.7545 234.119C56.6476 234.579 56.5336 235.01 56.4125 235.404ZM60.7975 236.622C60.9346 236.71 61.0696 236.795 61.2046 236.882C61.0756 237.18 60.9346 237.45 60.7865 237.696C60.6655 237.636 60.5465 237.576 60.4265 237.515C60.5475 237.231 60.6636 236.928 60.7755 236.607C60.7825 236.612 60.7896 236.617 60.7975 236.622ZM64.8185 233.453C64.7095 233.85 64.6135 234.257 64.5305 234.676C64.5226 234.715 64.5126 234.75 64.5045 234.789C64.3356 234.674 64.1696 234.561 64.0026 234.446C64.1006 233.982 64.2185 233.536 64.3495 233.101C64.5055 233.219 64.6626 233.336 64.8185 233.453ZM84.7925 238.279C84.7855 238.318 84.7755 238.346 84.7676 238.384C84.6016 238.266 84.4385 238.152 84.2695 238.029C84.9456 234.832 86.6135 232.517 88.9985 230.818C86.9055 232.656 85.4225 235.071 84.7925 238.279ZM185.758 84.9241C179.28 83.2971 167.215 78.7161 153.247 73.4121L153.229 73.4055C126.289 63.1768 93.0714 50.5642 78.5436 50.967C78.0165 49.697 77.5215 48.4631 77.0475 47.2542C90.4005 45.7632 126.018 59.3521 154.698 70.3081C169.047 75.79 181.44 80.5242 188.068 82.188C190.13 82.7051 191.997 82.3481 193.767 81.3311C191.156 84.124 188.591 85.635 185.758 84.9241ZM353.292 160.217C353.306 159.905 353.313 159.593 353.313 159.283C353.313 152.505 349.942 146.251 343.288 140.683C323.114 123.715 307.161 125.827 295.142 132.027C307.852 123.532 325.781 117.375 349.125 136.948C355.672 142.414 358.867 148.265 358.867 154.804Q358.867 155.29 358.844 155.781C358.222 168.745 345.152 182.658 328.664 195.912C342.499 184.135 352.76 172.027 353.292 160.217ZM381.089 244.518C381.015 244.601 380.941 244.685 380.866 244.768C382.303 241.275 383.159 237.72 383.159 234.115C383.159 229.008 381.442 223.799 377.226 218.52C371.241 211.027 364.302 208.087 356.807 208.204C365.61 206.677 373.552 208.775 379.893 216.731C383.644 221.439 385.19 226.112 385.19 230.717C385.19 235.399 383.592 240.011 381.089 244.518ZM348.049 299.111C347.73 298.11 347.582 297.079 347.582 296.02C347.582 295.004 347.718 293.963 347.972 292.899C347.987 294.018 348.15 295.121 348.483 296.207C348.899 297.563 349.571 298.849 350.484 300.079C349.865 300.219 349.244 300.357 348.622 300.496C348.399 300.041 348.198 299.581 348.049 299.111ZM345.364 301.216C345.251 300.585 345.197 299.942 345.197 299.289C345.197 298.251 345.333 297.187 345.583 296.098C345.592 297.325 345.766 298.533 346.144 299.718C346.276 300.132 346.432 300.541 346.612 300.943C346.197 301.035 345.78 301.126 345.364 301.216ZM145.589 302.933C155.007 303.711 163.346 306.047 171.41 308.306C173.99 309.029 176.544 309.742 179.092 310.394C175.995 309.732 172.893 308.964 169.748 308.183C161.534 306.143 153.038 304.033 143.297 303.41C141.815 303.315 140.459 303.373 139.212 303.527C140.997 303.009 143.087 302.725 145.589 302.933ZM79.8025 273.88C88.4995 277.64 97.4945 281.528 103.94 286.846C108.687 290.781 112.302 291.786 115.207 292.593C119.097 293.674 121.445 294.326 124.055 301.687C125.441 305.594 126.643 307.416 128.198 307.967C127.393 308.372 126.747 308.57 126.244 308.39C125.317 308.058 124.306 306.377 123.154 303.251C120.105 294.977 116.747 294.076 112.494 292.934C109.497 292.13 106.102 291.219 101.625 287.488C95.2566 282.219 86.3225 277.602 77.6825 273.136C76.9615 272.764 76.2405 272.391 75.5176 272.016C76.9456 272.645 78.3766 273.264 79.8025 273.88ZM45.5675 242.284C45.7125 242.244 45.8595 242.208 46.0085 242.18C45.9338 242.927 45.8932 243.667 45.8932 244.402C45.8932 248.208 46.9841 251.884 50.1085 255.724C49.5756 255.202 49.0586 254.675 48.5735 254.138C45.8308 251.104 44.8152 248.653 44.8152 246.222C44.8152 244.932 45.1014 243.647 45.5675 242.284ZM55.2256 238.077C55.0665 238.015 54.9065 237.954 54.7466 237.892C53.9916 237.596 53.2306 237.3 52.4725 237.037C52.4506 236.616 52.4305 236.193 52.4196 235.761C53.4585 236.162 54.5625 236.698 55.6815 237.277C55.5355 237.569 55.3835 237.84 55.2256 238.077ZM57.2375 238.812C57.1985 238.798 57.1605 238.787 57.1216 238.773C57.2266 238.597 57.3235 238.392 57.4236 238.197C57.5095 238.243 57.5956 238.288 57.6815 238.334C57.5375 238.512 57.3905 238.671 57.2375 238.812ZM63.1925 238.138C63.0596 238.318 62.9186 238.477 62.7726 238.619C62.7175 238.596 62.6625 238.571 62.6075 238.548C62.7115 238.363 62.8086 238.161 62.9045 237.959C63.0005 238.019 63.0966 238.078 63.1925 238.138ZM66.4916 235.067C66.5115 234.966 66.5386 234.871 66.5605 234.771C67.4785 235.464 68.3876 236.148 69.2805 236.804C69.1775 237.118 69.0615 237.4 68.9355 237.659C68.0675 237.144 67.1746 236.575 66.2786 235.982C66.3545 235.688 66.4275 235.387 66.4916 235.067ZM91.3865 231.474C89.3655 233.261 87.9385 235.614 87.3275 238.732C87.2325 239.216 87.1055 239.567 86.9695 239.837C86.8196 239.747 86.6725 239.662 86.5186 239.565C86.6095 239.282 86.6925 238.987 86.7555 238.665C87.3855 235.458 89.0255 233.153 91.3865 231.474ZM184.367 87.2561C177.903 85.6331 165.976 81.1191 152.166 75.8921C126.359 66.124 94.6636 54.1262 79.7676 53.8562C79.6355 53.55 79.5085 53.25 79.3795 52.947C93.8035 52.9812 126.198 65.2822 152.536 75.2822C166.563 80.6082 178.678 85.209 185.271 86.864C186.139 87.082 186.973 87.1472 187.781 87.0872C186.672 87.4612 185.544 87.551 184.367 87.2561ZM268.667 87.8931C268.534 68.925 264.968 52.1621 250.311 48.614C236.082 45.1721 225.719 48.3672 217.707 54.1301C225.739 47.1631 236.284 42.9502 251.644 46.6001C265.432 49.8745 268.689 66.3953 268.689 85.1682C268.689 86.0718 268.682 86.9805 268.667 87.8931ZM268.802 149.034C267.518 147.548 266.816 144.833 266.493 141.288C266.943 144.393 267.766 146.798 269.125 148.338C269.675 148.961 270.285 149.326 270.946 149.488C270.035 149.752 269.326 149.636 268.802 149.034ZM349.524 162.383C349.536 162.089 349.543 161.796 349.543 161.504C349.543 154.881 346.245 148.763 339.734 143.31C325.651 131.446 313.705 129.052 303.771 130.819C314.12 127.974 326.825 129.449 342.003 142.215C348.26 147.451 351.313 153.033 351.313 159.255C351.313 159.544 351.307 159.835 351.294 160.127C351.061 165.299 348.696 170.644 344.883 176.038C347.651 171.465 349.327 166.9 349.524 162.383ZM372.991 221.563C367.917 215.224 361.904 211.646 355.114 210.926C354.094 210.818 353.062 210.778 352.024 210.795C360.859 209.211 368.972 211.39 375.663 219.768C379.494 224.565 381.063 229.346 381.063 234.069C381.063 239.191 379.217 244.246 376.41 249.178C378.041 245.348 379.033 241.448 379.033 237.497C379.033 232.262 377.292 226.937 372.991 221.563ZM65.3306 239.415C65.1636 239.387 64.9945 239.352 64.8206 239.311C64.8516 239.267 64.8805 239.217 64.9125 239.172C65.0515 239.253 65.1925 239.336 65.3306 239.415ZM73.0536 239.422C72.9905 239.458 72.9275 239.498 72.8616 239.526C72.8445 239.533 72.8265 239.535 72.8096 239.542C72.1526 239.325 71.4415 239.014 70.6935 238.632C70.7896 238.438 70.8785 238.229 70.9646 238.014C71.6746 238.514 72.3716 238.985 73.0536 239.422ZM93.7495 232.148C91.8125 233.885 90.4475 236.17 89.8575 239.187C89.6345 240.328 89.2245 240.719 88.9546 240.873C88.8816 240.842 88.8096 240.811 88.7356 240.778C88.9775 240.304 89.1646 239.753 89.2896 239.117C89.8986 236.012 91.4756 233.775 93.7495 232.148ZM182.968 89.5952C176.521 87.9751 164.738 83.53 151.092 78.3821C126.404 69.0681 96.2225 57.688 81.0596 56.8101C80.9215 56.499 80.7865 56.1902 80.6505 55.8821C95.4186 56.5591 126.268 68.228 151.458 77.7632C165.327 83.0122 177.302 87.5452 183.88 89.196C184.82 89.4321 185.718 89.4851 186.591 89.4072C185.417 89.811 184.219 89.9082 182.968 89.5952ZM266.655 91.948C266.544 73.04 263.09 56.1812 248.505 52.5842C234.311 49.0811 223.976 52.2651 215.979 57.967C223.999 51.0652 234.505 46.8462 249.84 50.5591C263.504 53.8655 266.679 70.3774 266.679 89.0127C266.679 89.9858 266.671 90.9648 266.655 91.948ZM266.976 151.061C265.676 149.53 264.98 146.72 264.67 143.064C265.108 146.266 265.918 148.757 267.291 150.342C267.866 151.006 268.503 151.386 269.193 151.551C268.25 151.826 267.519 151.701 266.976 151.061ZM345.747 164.56C345.758 164.282 345.764 164.004 345.764 163.728C345.764 157.263 342.539 151.284 336.171 145.944C322.311 134.247 310.604 131.897 300.901 133.625C311.01 130.814 323.474 132.227 338.447 144.841C344.56 149.961 347.543 155.41 347.543 161.474C347.543 161.746 347.537 162.02 347.525 162.295C347.303 167.34 344.98 172.56 341.243 177.832C343.932 173.385 345.561 168.949 345.747 164.56ZM259.863 256.413C259.224 255.757 258.908 255.025 258.872 254.201C259.012 255.06 259.384 255.846 260.01 256.544C259.962 256.498 259.91 256.46 259.863 256.413ZM354.904 212.915C361.23 213.585 366.635 216.823 371.431 222.813C375.348 227.707 376.942 232.606 376.942 237.458C376.942 242.775 375.027 248.035 372.156 253.17C373.864 249.141 374.916 245.04 374.916 240.894C374.916 235.523 373.151 230.075 368.763 224.603C363.365 217.87 357.091 214.11 350.119 213.427C349.154 213.333 348.184 213.299 347.209 213.315C349.839 212.81 352.411 212.652 354.904 212.915ZM258.195 257.579C257.34 256.734 256.928 255.795 256.896 254.736C257.034 255.834 257.519 256.827 258.34 257.706C258.292 257.661 258.242 257.625 258.195 257.579ZM265.451 152.355C266.046 153.056 266.705 153.452 267.418 153.623C266.459 153.896 265.714 153.755 265.154 153.083C263.918 151.599 263.243 148.93 262.916 145.486C263.361 148.487 264.155 150.828 265.451 152.355ZM264.64 95.4011C264.486 76.7981 261.066 60.1572 246.708 56.5461C232.563 52.988 222.258 56.144 214.279 61.7671C222.286 54.957 232.754 50.76 248.028 54.5251C261.568 57.8652 264.658 74.3713 264.658 92.866C264.658 93.7073 264.652 94.5527 264.64 95.4011ZM81.9835 58.8721C97.0245 60.1221 126.326 71.176 150.385 80.2532C164.089 85.4231 175.923 89.8872 182.482 91.5342C183.494 91.7891 184.463 91.8281 185.409 91.719C184.165 92.156 182.899 92.26 181.575 91.9292C175.141 90.313 163.495 85.9351 150.007 80.864C126.429 72.0012 97.7505 61.2241 82.4126 59.8152C82.2686 59.5 82.1245 59.1851 81.9835 58.8721ZM150.542 199.272C152.942 205.736 154.333 211.013 154.333 214.646C154.333 215.425 154.269 216.129 154.136 216.753C153.096 221.673 149.534 224.289 144.561 225.692C149.028 223.949 152.3 221.037 153.438 216.099C153.616 215.323 153.703 214.443 153.703 213.466C153.703 209.919 152.56 205.092 150.542 199.272ZM96.1775 232.772C94.2946 234.465 92.9675 236.692 92.3936 239.635C92.1266 241 91.5696 241.192 91.3855 241.255C91.3375 241.272 91.2755 241.269 91.2245 241.281C91.4905 240.804 91.6906 240.234 91.8206 239.57C92.4126 236.536 93.9525 234.353 96.1775 232.772ZM332.616 148.575C318.995 137.06 307.546 134.752 298.083 136.424C307.942 133.671 320.145 135.036 334.884 147.474C340.853 152.479 343.764 157.795 343.764 163.701C343.764 163.958 343.759 164.216 343.748 164.475C343.525 169.751 341.03 175.159 337 180.606C339.977 175.959 341.788 171.319 341.977 166.735C341.987 166.473 341.993 166.212 341.993 165.952C341.993 159.644 338.842 153.801 332.616 148.575ZM148.062 198.24C150.376 204.572 151.717 209.76 151.717 213.367C151.717 214.218 151.643 214.98 151.489 215.649C150.362 220.541 146.718 223.154 141.68 224.584C146.211 222.827 149.563 219.926 150.788 215.025C150.995 214.194 151.096 213.244 151.096 212.181C151.096 208.667 149.998 203.928 148.062 198.24ZM216.486 307.096C201.889 311.535 189.476 307.268 176.333 302.748C168.306 299.986 160.004 297.131 150.66 296C143.858 295.172 139.787 298.075 137.088 300L137.073 300.011C135.815 300.908 134.724 301.677 134.132 301.486C133.615 301.316 132.74 300.322 131.507 296.555C128.855 288.448 126.508 287.405 122.247 286.129C119.771 285.388 116.688 284.465 112.389 280.941C105.286 275.117 96.0935 272.813 87.2046 270.584C77.2676 268.092 67.8816 265.738 61.1326 258.906C58.7266 256.47 54.5496 251.078 53.0026 241.935C53.2085 241.886 53.4146 241.826 53.6185 241.757C54.5706 241.823 55.5226 241.778 56.4265 241.508C57.3566 241.619 58.2595 241.589 59.1216 241.364C60.5265 241.588 61.8645 241.515 63.0615 240.875C65.0135 241.56 66.8156 241.778 68.3685 241.044C68.4146 241.022 68.4556 240.992 68.5005 240.969C70.0675 241.586 71.5126 241.866 72.7886 241.616C74.0785 241.953 75.2555 241.982 76.2805 241.564C76.3965 241.517 76.5035 241.455 76.6135 241.397C78.2115 242.104 79.6565 242.433 80.8855 242.209C81.8555 242.498 82.7466 242.591 83.5455 242.446C84.5376 242.754 85.4365 242.845 86.2395 242.695C87.2325 243.013 88.1285 243.112 88.9205 242.962C90.1066 243.352 91.1595 243.45 92.0386 243.146C93.2535 242.726 94.0336 241.674 94.3566 240.018C96.3965 229.56 109.879 229.466 124.154 229.366C138.609 229.265 153.555 229.16 156.094 217.167C156.247 216.443 156.321 215.63 156.321 214.734C156.321 200.02 136.256 162.718 115.081 123.355L115.072 123.337C103.486 101.8 91.7115 79.9092 83.3745 61.9131C98.5665 63.6731 126.365 74.114 149.303 82.7361C162.847 87.8281 174.544 92.2251 181.088 93.8682C187.9 95.582 193.066 88.7532 199.042 80.8491L199.045 80.8442C208.732 68.032 220.786 52.0879 246.221 58.4861C259.643 61.8613 262.647 78.3755 262.647 96.7356C262.647 104.687 262.083 112.984 261.559 120.71L261.559 120.712L261.558 120.715C261.097 127.516 260.663 133.909 260.663 139.348C260.663 146.279 261.367 151.659 263.616 154.362C266.494 157.821 270.719 154.497 276.067 150.284C287.501 141.275 304.782 127.664 331.328 150.104C337.153 154.995 339.994 160.178 339.994 165.927C339.994 166.168 339.989 166.41 339.979 166.653C339.249 184.408 311.923 203.765 287.813 220.842C268.842 234.281 252.456 245.888 251.83 254.782C251.817 254.962 251.811 255.14 251.811 255.317C251.811 257.362 252.656 259.197 254.328 260.775C257.154 263.444 260.303 264.598 263.719 264.598C273.87 264.596 286.337 254.393 299.392 243.417C300.403 242.595 301.415 241.768 302.432 240.938C302.634 240.773 302.837 240.608 303.038 240.443C303.382 240.17 303.726 239.898 304.071 239.624C305.032 238.861 305.999 238.093 306.969 237.325C309.484 235.38 312.03 233.418 314.59 231.48C319.431 227.933 324.338 224.396 329.226 221.073C329.413 220.946 329.601 220.821 329.788 220.695C336.684 216.946 343.451 214.782 349.923 215.418C356.43 216.055 362.082 219.469 367.203 225.854C371.213 230.855 372.835 235.884 372.835 240.877C372.835 252.31 364.333 263.554 356.555 273.843C349.711 282.895 343.192 291.519 343.192 299.275C343.192 300.074 343.261 300.863 343.406 301.643C315.219 307.73 285.641 312.422 267.163 312.422L266.965 312.422C260.198 312.41 253.29 310.705 246.609 309.057L246.606 309.056C236.679 306.606 226.414 304.073 216.486 307.096ZM144.082 298.484C145.839 297.945 147.912 297.682 150.419 297.985C159.552 299.091 167.753 301.912 175.684 304.639C179.157 305.834 182.581 307.007 186.01 308.018C182.068 307.04 178.14 305.816 174.144 304.57C166.051 302.045 157.682 299.435 148.206 298.472C146.703 298.318 145.337 298.343 144.082 298.484ZM148.003 300.461C157.281 301.404 165.55 303.984 173.547 306.479C176.567 307.421 179.546 308.345 182.526 309.169C179.017 308.354 175.51 307.377 171.95 306.38C163.795 304.096 155.363 301.733 145.753 300.939C144.265 300.817 142.91 300.858 141.661 301.005C143.431 300.48 145.508 300.208 148.003 300.461ZM83.1545 273.121C91.8795 276.121 100.904 279.222 107.53 284.669C112.208 288.527 115.661 289.523 118.432 290.325C122.208 291.415 124.288 292.016 126.83 299.433C128.117 303.228 129.25 305.035 130.703 305.618C129.951 306.025 129.331 306.244 128.872 306.086C128 305.782 127.041 304.124 125.94 301.018C122.983 292.678 119.788 291.79 115.744 290.666C112.879 289.87 109.634 288.968 105.214 285.305C99.1006 280.261 90.9186 276.525 82.7955 272.998C82.9155 273.039 83.0355 273.08 83.1545 273.121ZM48.0405 242.066C48.2006 242.071 48.3616 242.076 48.5245 242.083C48.7905 247.288 50.2686 252.356 53.9716 256.955C53.5546 256.553 53.1476 256.145 52.7576 255.727C49.1483 251.851 47.9082 248.217 47.9082 244.351C47.9082 243.599 47.9551 242.839 48.0405 242.066ZM56.9446 257.318C52.5715 252.76 50.7925 247.784 50.5165 242.168C50.6825 242.169 50.8495 242.167 51.0165 242.164C52.2986 249.849 55.3566 255.067 57.8566 258.211C57.5486 257.917 57.2395 257.625 56.9446 257.318ZM131.492 303.791C130.687 303.518 129.755 301.836 128.724 298.788C125.842 290.383 122.967 289.553 118.988 288.403C116.391 287.653 113.161 286.72 108.8 283.126C103.378 278.667 96.5396 275.761 89.5465 273.238C97.3115 275.226 105.096 277.548 111.122 282.488C115.729 286.266 119.026 287.253 121.674 288.045C125.208 289.104 127.156 289.686 129.607 297.177C130.809 300.852 131.88 302.647 133.236 303.262C132.504 303.694 131.909 303.936 131.492 303.791ZM145.351 196.523C147.733 203.026 149.115 208.359 149.115 212.066C149.115 212.995 149.028 213.822 148.849 214.54C147.635 219.394 143.922 222.006 138.833 223.465C143.411 221.692 146.828 218.804 148.136 213.953C148.376 213.067 148.491 212.043 148.491 210.89C148.491 207.269 147.353 202.382 145.351 196.523ZM263.241 315.776L263.129 315.776C256.032 315.776 249.092 313.539 242.379 311.374C238.174 310.018 233.903 308.647 229.576 307.828C234.967 308.244 240.459 309.599 246.13 310.998C252.926 312.675 259.953 314.409 266.961 314.422L267.135 314.422C285.114 314.422 316.441 309.354 343.928 303.535C343.948 303.59 343.972 303.645 343.993 303.7C315.521 309.978 281.858 315.712 263.241 315.776ZM350.821 292.72C351.493 294.995 352.891 297.089 355.024 299.037C354.24 299.219 353.454 299.401 352.664 299.582C351.581 298.318 350.819 297.001 350.395 295.62C350.109 294.69 349.975 293.735 349.975 292.756C349.975 291.764 350.113 290.748 350.369 289.71C350.386 290.726 350.528 291.73 350.821 292.72ZM272.803 144.314C273.812 145.412 275.004 145.666 276.384 145.335C273.528 147.405 271.68 148.21 270.625 147.015C268.7 144.833 268.063 139.948 268.063 133.629C268.063 127.614 268.64 120.3 269.234 112.782C269.936 103.893 270.692 94.3147 270.692 85.2114C270.692 65.6235 267.19 48.2361 252.107 44.6531C232.646 40.0332 220.382 47.6702 211.515 57.4961C220.384 45.1321 232.974 33.562 255.265 38.667C269.322 41.8862 272.74 58.4683 272.74 77.5461C272.74 87.269 271.853 97.6399 271.032 107.221L271.031 107.228L271.03 107.241C270.298 115.797 269.639 123.497 269.639 129.747C269.639 136.614 270.435 141.732 272.803 144.314ZM142.8 195.261C145.147 201.729 146.51 207.052 146.51 210.775C146.51 211.781 146.411 212.669 146.205 213.432C144.908 218.239 141.138 220.85 136.017 222.342C140.622 220.552 144.09 217.677 145.483 212.888C145.757 211.944 145.889 210.842 145.889 209.595C145.889 205.96 144.77 201.088 142.8 195.261ZM59.0336 235.501C58.9136 235.895 58.7886 236.258 58.6565 236.587C58.5475 236.529 58.4396 236.472 58.3315 236.415C58.2875 236.391 58.2435 236.367 58.1985 236.343C58.3206 235.981 58.4406 235.607 58.5496 235.198C58.7106 235.298 58.8716 235.399 59.0336 235.501ZM42.0536 247.251C42.3986 246.792 42.6476 246.235 42.8506 245.634C42.8402 245.827 42.8348 246.02 42.8348 246.213C42.8348 248.831 43.8048 251.562 46.4446 254.716C45.7185 254 45.0215 253.28 44.3865 252.555C42.9125 250.873 42.0515 249.51 41.6605 248.304C41.8206 247.982 41.9485 247.628 42.0536 247.251ZM349.126 304.691C348.417 304.859 347.708 305.026 346.99 305.193C346.968 305.161 346.947 305.129 346.926 305.097C347.64 304.937 348.352 304.777 349.057 304.617C349.08 304.642 349.104 304.667 349.126 304.691ZM355.516 285.784C356.608 289.778 360.03 293.263 366.009 296.391C363.205 297.09 360.348 297.783 357.452 298.467C354.967 296.504 353.404 294.404 352.739 292.153C352.482 291.286 352.362 290.398 352.362 289.49C352.362 286.68 353.519 283.682 355.396 280.545C355.232 281.365 355.145 282.179 355.145 282.986C355.145 283.928 355.263 284.86 355.516 285.784ZM274.818 101.837C273.979 110.969 273.227 119.165 273.227 125.741C273.227 132.64 274.055 137.756 276.482 140.299C277.434 141.295 278.566 141.527 279.875 141.223C277.275 143.109 275.288 144.064 274.278 142.962C272.32 140.829 271.66 135.994 271.66 129.691C271.66 123.331 272.332 115.477 273.025 107.398L273.025 107.396C273.848 97.7783 274.738 87.3853 274.738 77.5864C274.738 57.6841 271.067 40.2339 255.712 36.718C236.355 32.2842 224.056 39.7002 215.182 49.6331C224.049 37.0371 236.713 25.8401 258.883 30.7432C273.216 33.9114 276.788 50.5842 276.788 69.9771C276.788 80.3691 275.763 91.5422 274.818 101.837ZM109.198 223.744C122.682 222.569 136.628 221.354 140.175 210.746C140.528 209.689 140.697 208.43 140.697 206.987C140.697 192.68 124.138 160.203 106.701 126L106.695 125.988C95.1365 103.319 83.3485 80.1912 77.0625 63.3762C84.0806 80.5942 95.6836 102.909 107.662 125.942C125.505 160.25 143.911 195.643 143.911 209.483C143.911 210.568 143.798 211.52 143.562 212.329C140.739 222.039 127.775 222.818 114.05 223.644C100.07 224.484 85.6276 225.353 82.5245 236.713C81.6885 236.064 80.8335 235.378 79.9706 234.667C83.6865 225.972 96.1066 224.884 109.198 223.744ZM118.373 315.319C117.264 314.894 116.128 313.188 114.797 309.95C111.471 301.851 107.43 300.862 102.75 299.717C99.3525 298.885 95.5005 297.942 90.8645 294.043C86.1276 290.059 79.5386 285.166 72.5625 279.985C60.2986 270.877 46.5906 260.689 38.6056 252.282C39.4365 251.926 40.0656 251.353 40.5355 250.615C41.0835 251.614 41.8456 252.69 42.8826 253.874C49.8625 261.838 62.1705 269.182 74.0746 276.283C82.7175 281.44 90.8805 286.311 96.7576 291.212C101.633 295.277 105.572 296.302 108.737 297.126C112.946 298.221 115.726 298.944 118.5 306.2C120.001 310.125 121.286 311.972 122.927 312.576C124.671 313.213 126.327 312.304 128.427 311.152L128.43 311.15L128.458 311.134C131.175 309.644 134.882 307.609 140.755 307.881C150.458 308.322 158.931 310.158 167.125 311.933C175.539 313.755 183.656 315.502 192.242 315.476C182.353 316.485 173.269 315.101 163.125 313.543C154.74 312.255 146.068 310.924 135.94 310.828C135.853 310.828 135.766 310.827 135.682 310.827C129.607 310.827 125.655 312.726 122.758 314.117C120.818 315.048 119.42 315.718 118.373 315.319ZM348.39 306.974L348.349 306.93C349.132 306.746 349.913 306.563 350.685 306.379C350.73 306.369 350.779 306.357 350.823 306.346C350.833 306.355 350.843 306.364 350.853 306.373C350.042 306.572 349.218 306.772 348.39 306.974ZM360.227 278.917C361.606 284.381 367.62 288.966 378.87 293.041C375.693 293.906 372.4 294.773 369.016 295.634C362.312 292.521 358.491 289.085 357.445 285.256C357.24 284.508 357.143 283.745 357.143 282.968C357.143 280.345 358.252 277.565 360.08 274.665C359.979 275.274 359.926 275.881 359.926 276.484C359.926 277.301 360.022 278.112 360.227 278.917ZM135.145 191.368C137.402 197.776 138.722 203.1 138.722 206.886C138.722 208.134 138.579 209.214 138.279 210.111C136.693 214.852 132.655 217.471 127.313 219.059C132.122 217.214 135.852 214.364 137.526 209.677C137.923 208.568 138.111 207.233 138.111 205.692C138.111 202.002 137.032 197.133 135.145 191.368ZM362.584 275.501C364.064 281.595 371.469 286.64 385.677 291.137C384.559 291.459 383.427 291.781 382.272 292.104C370.068 288.065 363.462 283.562 362.165 278.427C362.003 277.788 361.927 277.138 361.927 276.478C361.927 275.59 362.066 274.685 362.327 273.764C362.363 274.343 362.445 274.922 362.584 275.501ZM280.489 93.7532C279.489 103.721 278.594 112.636 278.594 119.676C278.594 126.651 279.472 131.784 281.995 134.273C282.865 135.133 283.88 135.369 285.059 135.126C282.566 136.945 280.685 137.854 279.75 136.895C277.733 134.824 277.036 130.028 277.036 123.711C277.036 116.865 277.854 108.231 278.697 99.3408L278.698 99.3311C279.71 88.6445 280.808 77.053 280.808 66.2471C280.808 45.8516 276.896 28.2549 261.113 24.8252C241.779 20.625 229.38 27.8401 220.466 37.9551C229.365 25.0281 242.177 14.2061 264.305 18.8552C279.071 21.958 282.865 38.8088 282.865 58.6931C282.865 70.0554 281.626 82.4082 280.489 93.7524L280.489 93.7532ZM102.677 127.617C92.7755 107.515 82.6755 87.01 77.0995 71.7112C83.3365 87.312 93.2965 107.059 103.562 127.412C119.603 159.215 136.141 192.005 136.141 205.573C136.141 206.909 135.981 208.06 135.644 209.004C132.359 218.196 119.809 219.461 106.521 220.8C94.1465 222.047 81.4175 223.337 76.4595 231.709C75.7585 231.107 75.0685 230.51 74.3926 229.926C79.5725 223.713 90.4225 222.316 101.778 220.86C114.76 219.195 128.188 217.474 132.216 207.538C132.712 206.313 132.947 204.806 132.947 203.044C132.947 189.071 118.194 159.119 102.677 127.617ZM367.298 268.769C368.899 275.893 379.115 281.682 399.378 286.922C396.259 287.96 392.843 289.028 389.196 290.109C374.008 285.661 365.907 280.709 364.529 275.029C364.383 274.43 364.313 273.823 364.313 273.208C364.313 270.984 365.225 268.654 366.775 266.239C366.885 266.117 366.999 265.994 367.113 265.872C367.088 266.161 367.075 266.45 367.075 266.739C367.075 267.415 367.145 268.092 367.298 268.769ZM100.045 128.815C91.1836 110.334 82.1565 91.4971 77.0605 77.197C82.7755 91.7332 91.6925 109.844 100.882 128.501C115.704 158.592 130.979 189.604 130.979 202.945C130.979 204.463 130.781 205.753 130.363 206.786C126.774 215.639 114.508 217.211 101.523 218.876C90.2135 220.327 78.6066 221.817 72.8755 228.616C72.2665 228.09 71.6626 227.571 71.0685 227.063C76.7395 222.048 86.5906 220.507 96.8525 218.906C109.493 216.934 122.562 214.895 126.901 205.404C127.512 204.067 127.797 202.383 127.797 200.392C127.797 186.695 114.266 158.473 100.045 128.815ZM105.583 327.025C104.067 326.54 102.613 324.718 100.872 321.119C97.0825 313.289 91.9785 312.194 86.5746 311.036C82.2665 310.113 77.8125 309.159 72.9286 304.965C60.5906 294.373 30.3015 261.379 18.0956 245.548C20.1665 246.735 22.2485 247.877 24.2736 248.889C36.4535 263.662 65.7705 291.015 78.8086 302.117C83.9716 306.513 88.5555 307.546 92.5995 308.457C97.5345 309.568 101.432 310.446 104.625 317.476C108.431 325.857 111.196 325.21 116.596 323.083C119.538 321.924 123.201 320.482 128.672 320.245C139.052 319.802 147.827 320.323 156.309 320.827C163.388 321.248 169.948 321.631 176.62 321.417C168.403 322.275 160.526 322.303 151.854 322.33C143.257 322.356 134.368 322.384 123.681 323.197C118.219 323.617 114.286 324.98 111.413 325.975C108.872 326.855 107.036 327.488 105.583 327.025ZM315.816 331.654C284.852 339.699 245.076 348.282 226.014 349.322C217.51 349.791 213.121 342.204 208.479 334.177C204.552 327.382 200.507 320.414 193.713 319.329C193.948 319.277 194.179 319.233 194.415 319.179C202.82 317.258 207.872 323.839 213.218 330.804L213.224 330.812C218.44 337.607 223.827 344.627 232.773 344.627C233.029 344.627 233.288 344.621 233.55 344.609C253.099 343.74 292.928 335.436 323.73 327.592C338.324 323.876 351.279 320.196 361.677 316.822C362.24 317.022 362.828 317.219 363.417 317.414C353.462 321.077 338.08 325.869 315.816 331.654ZM369.673 265.369C371.274 272.799 382.519 278.838 405.061 284.375C405.382 284.455 405.667 284.538 405.934 284.622C404.935 284.994 403.892 285.371 402.801 285.753C402.555 285.678 402.312 285.602 402.04 285.534C381.427 280.421 370.702 274.793 369.249 268.33C369.133 267.816 369.078 267.296 369.078 266.77C369.078 265.912 369.226 265.038 369.504 264.151C369.536 264.557 369.584 264.962 369.673 265.369ZM122.526 184.889C124.606 191.147 125.834 196.433 125.834 200.305C125.834 202.017 125.594 203.452 125.082 204.572C122.95 209.237 118.38 211.9 112.609 213.686C117.813 211.718 122.044 208.88 124.247 204.332C124.922 202.938 125.236 201.162 125.236 199.051C125.236 195.3 124.245 190.492 122.526 184.889ZM34.5226 244.973C36.3206 245.158 38.0925 245.164 39.6985 244.846C39.6355 245.054 39.5856 245.265 39.5425 245.478C38.1285 245.98 36.2366 245.907 34.1205 245.483C34.1935 245.305 34.3265 245.135 34.5226 244.973ZM119.914 183.26C122.02 189.625 123.272 195.021 123.272 198.977C123.272 200.788 123.01 202.297 122.447 203.46C120.203 208.095 115.55 210.772 109.716 212.604C114.973 210.607 119.28 207.768 121.587 203.266C122.329 201.819 122.672 199.951 122.672 197.717C122.672 193.882 121.659 188.969 119.914 183.26ZM374.406 258.616C375.894 266.137 387.858 272.358 412.057 278.194C414.644 278.819 415.549 279.56 415.549 280.023C415.549 280.037 415.548 280.05 415.547 280.063C415.53 280.209 415.464 280.367 415.376 280.531C414.77 280.861 414.087 281.203 413.353 281.551C412.348 280.152 409.972 279.57 409.031 279.34C386.809 273.933 375.349 268.124 373.999 261.581C373.908 261.144 373.865 260.703 373.865 260.258C373.865 259.737 373.924 259.21 374.036 258.679C374.146 258.568 374.255 258.456 374.365 258.345C374.38 258.435 374.388 258.525 374.406 258.616ZM316.245 225.494C359.703 197.941 413.791 163.65 428.016 182.05C431.322 186.327 432.988 190.699 432.988 195.081C432.988 195.961 432.921 196.841 432.786 197.72C431.505 206.093 424.291 213.687 415.572 220.648C414.083 221.994 412.524 223.317 410.917 224.619C409.513 225.901 408.046 227.164 406.546 228.408C404.997 229.84 403.379 231.252 401.72 232.646C399.272 234.933 396.671 237.171 394.041 239.363C391.823 241.584 389.479 243.761 387.115 245.896C384.734 248.228 382.276 250.512 379.869 252.75C379.588 253.01 379.309 253.269 379.03 253.529C378.906 253.659 378.781 253.788 378.657 253.918C378.667 254.24 378.693 254.56 378.753 254.877C380.004 261.479 392.196 267.458 416.024 273.156C417.354 273.473 421.297 274.417 421.297 277.016C421.297 277.12 421.291 277.226 421.278 277.335C421.104 278.786 419.44 280.349 416.725 281.96C415.963 282.896 414.698 283.867 413.022 284.86C412.274 285.791 411.012 286.76 409.338 287.752C408.603 288.681 407.34 289.652 405.656 290.649C404.547 292.074 402.154 293.61 398.886 295.192C398.687 296.458 397.134 297.865 394.611 299.349C393.582 300.715 391.224 302.256 387.8 303.917C387.799 303.924 387.799 303.93 387.799 303.937C387.799 303.946 387.799 303.956 387.8 303.966C387.8 303.976 387.801 303.985 387.801 303.995C387.801 304.003 387.801 304.012 387.8 304.02C387.665 305.256 386.498 306.971 380.43 309.809C380.429 309.816 380.429 309.822 380.429 309.829C380.429 309.846 380.43 309.862 380.431 309.879C380.431 309.896 380.432 309.912 380.432 309.929C380.432 309.945 380.431 309.961 380.43 309.978C380.359 310.627 380.229 311.779 376.455 313.926C376.057 314.609 375.087 315.566 372.663 316.922C372.078 317.75 370.904 318.658 369.251 319.624C368.637 320.99 365.635 323.689 349.248 329.407C338.02 333.325 322.139 338.069 304.532 342.766C273.27 351.106 233.457 360.096 214.987 361.38C214.656 361.403 214.33 361.414 214.011 361.414C204.571 361.414 200.836 351.442 197.219 341.787C193.649 332.251 190.274 323.242 181.831 324.827C168.737 327.283 157.469 328.367 144.422 329.623C136.352 330.399 127.205 331.28 116.581 332.603C111.943 333.184 108.452 334.202 105.646 335.019C98.9666 336.966 95.6135 337.943 90.7485 328.752C87.1285 321.909 82.2065 320.925 76.5076 319.785C71.7145 318.826 66.2825 317.739 60.8585 313.025C47.5885 301.488 9.11853 251.31 0.82251 237.75C0.522583 237.261 0 236.407 0 235.624C0 235.269 0.107422 234.928 0.391479 234.642C1.15356 233.875 2.39856 234.144 5.27148 235.685C6.10059 235.55 7.37549 235.997 9.49255 237.056C10.3506 236.953 11.6586 237.392 13.8125 238.382C15.1216 238.33 17.3306 239.23 21.3976 240.972C21.3986 240.973 21.4005 240.973 21.4015 240.974C22.6155 240.49 24.7075 240.966 27.7576 241.675C28.7035 241.895 29.7245 242.131 30.7765 242.348C31.6915 242.124 32.7875 242.004 34.0085 241.881C35.1605 241.764 36.3826 241.64 37.5895 241.419C39.8215 240.592 42.2875 239.566 44.1426 237.502C44.5145 236.285 45.0276 235.329 45.6815 234.615C45.6865 234.593 45.6946 234.575 45.6996 234.553C45.9496 233.436 46.3256 232.514 46.8185 231.783C47.1505 230.714 47.6345 229.879 48.2566 229.267C48.3156 229.041 48.3845 228.83 48.4385 228.596C48.6605 227.617 49.0045 226.814 49.4656 226.189C49.6786 225.438 49.9716 224.802 50.3545 224.298C50.5615 223.545 50.8535 222.912 51.2405 222.416C51.4415 221.652 51.7355 221.017 52.1295 220.524C52.5205 218.967 53.3275 217.974 54.5375 217.579C56.9425 216.795 60.4725 218.692 64.6925 221.868C71.0145 217.538 80.1705 215.719 89.1405 213.94C101.328 211.524 112.838 209.242 117.174 201.244C117.853 199.991 118.167 198.317 118.167 196.285C118.167 183.679 106.097 157.264 94.369 131.598L94.3616 131.582C82.4722 105.566 71.1498 80.7795 71.1498 68.2693C71.1498 67.9541 71.157 67.6465 71.1715 67.3472C71.1096 66.6179 71.0767 65.9197 71.0767 65.2576C71.0767 64.9353 71.0845 64.6218 71.1006 64.3171C71.0433 63.6216 71.0135 62.9568 71.0135 62.3242C71.0135 62.0273 71.0201 61.7375 71.0336 61.4551C70.9709 60.7332 70.9388 60.0442 70.9388 59.3901C70.9388 58.6235 70.9829 57.9045 71.0735 57.2361C70.8831 55.8921 70.7842 54.6467 70.7842 53.5085C70.7842 52.783 70.8243 52.1006 70.9065 51.4641C70.7059 50.093 70.6064 48.8308 70.6064 47.676C70.6064 47.4438 70.6105 47.2158 70.6185 46.9922C70.542 46.2087 70.5038 45.4668 70.5038 44.7661C70.5038 44.0564 70.543 43.3892 70.6216 42.7642C70.4105 41.3555 70.3004 40.0566 70.3004 38.877C70.3004 38.6423 70.3047 38.4124 70.3135 38.187C70.2344 37.3804 70.1918 36.613 70.1918 35.8926C70.1918 35.6665 70.1959 35.4448 70.2046 35.228C70.1285 34.4224 70.0826 33.6504 70.0826 32.9282C70.0826 32.7192 70.0864 32.5144 70.0945 32.3142C70.0199 31.5215 69.9766 30.7642 69.9766 30.0544C69.9766 29.8328 69.9807 29.616 69.9895 29.4041C69.9144 28.6196 69.8756 27.8748 69.8756 27.1721C69.8756 25.3408 70.139 23.7959 70.7085 22.583C71.5376 20.8171 72.9425 19.7231 74.8845 19.3301C89.2455 16.425 131.359 32.8901 165.201 46.1211C180.896 52.2571 194.453 57.5571 201.117 59.2312C204.93 60.1841 208.129 55.1011 211.749 47.738C211.774 47.6892 211.798 47.6392 211.823 47.5891C212.646 45.9111 213.49 44.1182 214.37 42.2512C223.39 23.0991 237.028 -5.84277 271.926 1.03516C288.615 4.32397 292.976 22.3503 292.976 43.792C292.976 56.5112 291.441 70.4321 290.035 83.1914L290.035 83.1921C288.882 93.647 287.764 103.785 287.764 111.541C287.764 117.985 288.535 122.784 290.699 124.755C292.097 126.024 296.667 122.141 301.505 118.022L301.506 118.021C316.767 105.033 345.173 80.8584 382.441 111.736C390.684 118.567 394.854 126.338 394.854 134.859C394.854 135.413 394.837 135.97 394.802 136.53C392.889 166.95 340.515 200.247 302.272 224.558C283.97 236.194 268.164 246.243 267.302 250.56C267.283 250.658 267.275 250.743 267.275 250.818C267.275 251.034 267.343 251.165 267.409 251.259C267.875 251.925 270.29 252.749 282.583 246.047C291.462 241.207 303.5 233.575 316.245 225.494Z" clip-rule="evenodd" fill="url(#paint_linear_0_625_0)" fill-opacity="1.000000" fill-rule="evenodd"/>
</svg>
