<svg width="13.699951" height="14.000000" viewBox="0 0 13.7 14" fill="none" xmlns="http://www.w3.org/2000/svg" xmlns:xlink="http://www.w3.org/1999/xlink">
	<desc>
			Created with Pixso.
	</desc>
	<defs/>
	<path id="Path" d="M6.89 6L6.89 8.4L11 8.4C10.8 9.4 9.8 11.4 7 11.4C4.6 11.4 2.69 9.4 2.69 7C2.69 4.59 4.69 2.59 7 2.59C8.39 2.59 9.3 3.19 9.8 3.69L11.7 1.9C10.5 0.69 8.89 0 7 0C3.1 0 0 3.09 0 7C0 10.9 3.1 14 7 14C11 14 13.7 11.2 13.7 7.19C13.7 6.69 13.7 6.4 13.6 6L6.89 6Z" fill="#FED7D7" fill-opacity="1.000000" fill-rule="nonzero"/>
</svg>
